<?xml version="1.0" standalone="no"?><!DOCTYPE svg PUBLIC "-//W3C//DTD SVG 1.1//EN" "http://www.w3.org/Graphics/SVG/1.1/DTD/svg11.dtd"><svg t="1540827818167" class="icon" style="" viewBox="0 0 1024 1024" version="1.1" xmlns="http://www.w3.org/2000/svg" p-id="12041" xmlns:xlink="http://www.w3.org/1999/xlink" width="200" height="200"><defs><style type="text/css"></style></defs><path d="M949.51936 467.33824l-377.55904-384.38912c-15.43168-16.44544-36.64896-25.50272-59.7504-25.50272-22.59968 0-43.78112 9.01632-59.57632 25.33376l-378.2144 385.02912c-26.5472 27.12576-20.8128 50.51392-17.03424 59.50976 4.7872 10.75712 18.21696 28.80512 54.35392 28.80512h41.21088v273.8176c0 75.32544 61.28128 136.61184 136.6016 136.61184h312.2944c15.40096 0 28.42112-13.22496 28.42112-28.88192a28.45184 28.45184 0 0 0-28.42112-28.42112H289.54624c-43.9808 0-79.75936-35.77856-79.75936-79.75936v-299.1104c0-0.53248-0.0512-1.05472-0.08192-1.58208v-29.52192h-35.50208l-0.19968-0.01024h-50.88256l370.18112-376.86272a25.97888 25.97888 0 0 1 18.89792-8.13568c7.18336 0 13.824 2.87232 18.21184 7.87968l370.41152 377.11872h-76.8a28.45184 28.45184 0 0 0-28.42112 28.42112 28.45696 28.45696 0 0 0 28.42112 28.43136h88.20224c40.448 0 52.0192-22.87104 54.43072-29.44512 3.712-8.79616 9.46176-32.18944-17.13664-59.33568z" p-id="12042" fill="#63dbb6"></path><path d="M662.32832 767.18592a104.0384 104.0384 0 0 0 18.12992 36.78208l0.32768 0.39936c4.66944 5.44768 11.15136 8.58112 17.792 8.58112 5.57056 0 10.26048-1.75616 13.9776-5.21728a22.144 22.144 0 0 0 8.12032-14.25408 22.48192 22.48192 0 0 0-4.18816-16.67072c-4.97152-7.04-8.4224-14.18752-10.26048-21.16608-5.85216-23.02976 2.14016-46.30016 20.78208-60.66176a22.08768 22.08768 0 0 0 8.70912-15.02208 22.7072 22.7072 0 0 0-4.40832-16.57344 22.12864 22.12864 0 0 0-17.87904-8.91904c-4.98176 0-9.728 1.59744-13.81888 4.66944-33.18272 25.51808-47.8208 67.90144-37.28384 108.05248z" p-id="12043" fill="#63dbb6"></path><path d="M866.89792 838.58944c24.9088-27.74016 40.09984-64.384 40.09984-104.51456 0-86.35392-70.25152-156.61056-156.60032-156.61056-86.35904 0-156.61056 70.25664-156.61056 156.61056s70.25152 156.61056 156.61056 156.61056c23.84896 0 46.45888-5.38112 66.70848-14.96064l53.05856 71.45472c5.73952 8.2944 14.94016 13.056 25.2416 13.056a29.92128 29.92128 0 0 0 18.23232-6.01088 30.62784 30.62784 0 0 0 12.55936-20.3776 30.50496 30.50496 0 0 0-5.74976-23.14752l-53.55008-72.11008z m-116.49536-216.55552c61.76768 0 112.03072 50.25792 112.03072 112.04096s-50.25792 112.04096-112.03072 112.04096c-61.77792 0-112.04096-50.25792-112.04096-112.04096s50.25792-112.04096 112.04096-112.04096z" p-id="12044" fill="#63dbb6"></path></svg>