<?xml version="1.0" encoding="UTF-8"?>
<svg width="916px" height="910px" viewBox="0 0 916 910" version="1.1" xmlns="http://www.w3.org/2000/svg" xmlns:xlink="http://www.w3.org/1999/xlink">
    <!-- Generator: Sketch 47 (45396) - http://www.bohemiancoding.com/sketch -->
    <title>Untitled</title>
    <desc>Created with Sketch.</desc>
    <defs></defs>
    <g id="Page-1" stroke="none" stroke-width="1" fill="none" fill-rule="evenodd">
        <g id="check_in-64c1cc1d81096fb82f2c6dd49506e25202b2347b3ea3dbc0c0b71b5c142c6cef" fill-rule="nonzero" fill="#FFFFFF">
            <path d="M895.51936,410.33824 L517.96032,25.94912 C502.52864,9.50368 481.31136,0.4464 458.20992,0.4464 C435.61024,0.4464 414.4288,9.46272 398.6336,25.78016 L20.4192,410.80928 C-6.128,437.93504 -0.3936,461.3232 3.38496,470.31904 C8.17216,481.07616 21.60192,499.12416 57.73888,499.12416 L98.94976,499.12416 L98.94976,772.94176 C98.94976,848.2672 160.23104,909.5536 235.55136,909.5536 L547.84576,909.5536 C563.24672,909.5536 576.26688,896.32864 576.26688,880.67168 C576.249949,864.982147 563.535293,852.267491 547.84576,852.25056 L235.54624,852.25056 C191.56544,852.25056 155.78688,816.472 155.78688,772.4912 L155.78688,473.3808 C155.78688,472.84832 155.73568,472.32608 155.70496,471.79872 L155.70496,442.2768 L120.20288,442.2768 L120.0032,442.26656 L69.12064,442.26656 L439.30176,65.40384 C444.21298,60.2067493 451.049169,57.2637247 458.19968,57.26816 C465.38304,57.26816 472.02368,60.14048 476.41152,65.14784 L846.82304,442.26656 L770.02304,442.26656 C754.333507,442.283491 741.618851,454.998147 741.60192,470.68768 C741.616024,486.380044 754.330683,499.099283 770.02304,499.11904 L858.22528,499.11904 C898.67328,499.11904 910.24448,476.248 912.656,469.67392 C916.368,460.87776 922.11776,437.48448 895.51936,410.33824 L895.51936,410.33824 Z" id="Shape"></path>
            <path d="M608.32832,710.18592 C611.871527,723.527994 618.034531,736.03153 626.45824,746.968 L626.78592,747.36736 C631.45536,752.81504 637.93728,755.94848 644.57792,755.94848 C650.14848,755.94848 654.8384,754.19232 658.55552,750.7312 C662.98734,747.194658 665.893754,742.092857 666.67584,736.47712 C667.543048,730.584826 666.036774,724.589193 662.48768,719.8064 C657.51616,712.7664 654.06528,705.61888 652.2272,698.64032 C646.37504,675.61056 654.36736,652.34016 673.00928,637.97856 C677.841373,634.370132 680.987884,628.942817 681.7184,622.95648 C682.471846,617.068152 680.889423,611.118902 677.31008,606.38304 C673.108197,600.73557 666.470084,597.424117 659.43104,597.464 C654.44928,597.464 649.70304,599.06144 645.61216,602.13344 C612.42944,627.65152 597.79136,670.03488 608.32832,710.18592 L608.32832,710.18592 Z" id="Shape"></path>
            <path d="M812.89792,781.58944 C837.80672,753.84928 852.99776,717.20544 852.99776,677.07488 C852.99776,590.72096 782.74624,520.46432 696.39744,520.46432 C610.0384,520.46432 539.78688,590.72096 539.78688,677.07488 C539.78688,763.4288 610.0384,833.68544 696.39744,833.68544 C720.2464,833.68544 742.85632,828.30432 763.10592,818.7248 L816.16448,890.17952 C821.904,898.47392 831.10464,903.23552 841.40608,903.23552 C847.978768,903.288856 854.386142,901.176456 859.6384,897.22464 C866.415761,892.417022 870.948874,885.062032 872.19776,876.84704 C873.501991,868.670633 871.426558,860.315305 866.448,853.69952 L812.89792,781.58944 L812.89792,781.58944 Z M696.40256,565.03392 C758.17024,565.03392 808.43328,615.29184 808.43328,677.07488 C808.43328,738.85792 758.17536,789.11584 696.40256,789.11584 C634.62464,789.11584 584.3616,738.85792 584.3616,677.07488 C584.3616,615.29184 634.61952,565.03392 696.40256,565.03392 Z" id="Shape"></path>
        </g>
    </g>
</svg>