<?xml version="1.0" encoding="UTF-8"?>
<svg width="801px" height="713px" viewBox="0 0 801 713" version="1.1" xmlns="http://www.w3.org/2000/svg" xmlns:xlink="http://www.w3.org/1999/xlink">
    <!-- Generator: Sketch 47 (45396) - http://www.bohemiancoding.com/sketch -->
    <title>Untitled</title>
    <desc>Created with Sketch.</desc>
    <defs></defs>
    <g id="Page-1" stroke="none" stroke-width="1" fill="none" fill-rule="evenodd">
        <g id="28-doctor-suit-case-(2)" fill-rule="nonzero" fill="#FFFFFF">
            <path d="M728.08704,142.47776 L643.136,142.47776 L643.136,49.4576 C643.136,22.64928 621.40672,0.92 594.61888,0.92 L206.31808,0.92 C179.50976,0.92 157.78048,22.64928 157.78048,49.4576 L157.78048,142.47776 L72.8704,142.47776 C32.64768,142.47776 0.064,175.08192 0.064,215.28416 L0.064,639.95744 C0.064,680.15968 32.64768,712.76384 72.8704,712.76384 L728.10752,712.76384 C768.30976,712.76384 800.91392,680.18016 800.91392,639.95744 L800.91392,215.28416 C800.87296,175.06144 768.28928,142.47776 728.08704,142.47776 Z M254.8352,97.97472 L546.0608,97.97472 L546.0608,142.45728 L254.8352,142.45728 L254.8352,97.97472 Z M505.98144,496.49504 L452.16,496.49504 L452.16,550.33696 C452.16,578.88608 428.99712,602.04896 400.448,602.04896 C371.89888,602.04896 348.77696,578.88608 348.77696,550.33696 L348.77696,496.49504 L294.93504,496.49504 C266.36544,496.49504 243.24352,473.35264 243.24352,444.80352 C243.24352,416.23392 266.38592,393.112 294.93504,393.112 L348.77696,393.112 L348.77696,339.2496 C348.77696,310.70048 371.91936,287.55808 400.448,287.55808 C429.0176,287.55808 452.16,310.68 452.16,339.2496 L452.16,393.09152 L505.98144,393.09152 C534.57152,393.09152 557.67296,416.23392 557.67296,444.78304 C557.67296,473.35264 534.55104,496.49504 505.98144,496.49504 Z" id="Shape"></path>
        </g>
    </g>
</svg>