<?xml version="1.0" standalone="no"?><!DOCTYPE svg PUBLIC "-//W3C//DTD SVG 1.1//EN" "http://www.w3.org/Graphics/SVG/1.1/DTD/svg11.dtd"><svg t="1538899177506" class="icon" style="" viewBox="0 0 1024 1024" version="1.1" xmlns="http://www.w3.org/2000/svg" p-id="19290" xmlns:xlink="http://www.w3.org/1999/xlink" width="200" height="200"><defs><style type="text/css"></style></defs><path d="M880.08704 287.47776l-84.95104 0 0-93.02016c0-26.80832-21.72928-48.5376-48.51712-48.5376l-388.3008 0c-26.80832 0-48.5376 21.72928-48.5376 48.5376l0 93.02016-84.91008 0c-40.22272 0-72.8064 32.60416-72.8064 72.8064l0 424.67328c0 40.20224 32.58368 72.8064 72.8064 72.8064l655.23712 0c40.20224 0 72.8064-32.58368 72.8064-72.8064l0-424.67328C952.87296 320.06144 920.28928 287.47776 880.08704 287.47776zM406.8352 242.97472l291.2256 0 0 44.48256-291.2256 0L406.8352 242.97472zM657.98144 641.49504 604.16 641.49504l0 53.84192c0 28.54912-23.16288 51.712-51.712 51.712-28.54912 0-51.67104-23.16288-51.67104-51.712l0-53.84192-53.84192 0c-28.5696 0-51.69152-23.1424-51.69152-51.69152 0-28.5696 23.1424-51.69152 51.69152-51.69152l53.84192 0 0-53.8624c0-28.54912 23.1424-51.69152 51.67104-51.69152 28.5696 0 51.712 23.12192 51.712 51.69152l0 53.84192 53.82144 0c28.59008 0 51.69152 23.1424 51.69152 51.69152C709.67296 618.35264 686.55104 641.49504 657.98144 641.49504z" p-id="19291" fill="#63dbb6"></path></svg>