<?xml version="1.0" encoding="UTF-8"?>
<svg width="1025px" height="1024px" viewBox="0 0 1025 1024" version="1.1" xmlns="http://www.w3.org/2000/svg" xmlns:xlink="http://www.w3.org/1999/xlink">
    <!-- Generator: Sketch 47 (45396) - http://www.bohemiancoding.com/sketch -->
    <title>Untitled</title>
    <desc>Created with Sketch.</desc>
    <defs></defs>
    <g id="Page-1" stroke="none" stroke-width="1" fill="none" fill-rule="evenodd">
        <g id="dog" transform="translate(1.000000, 0.000000)" fill-rule="nonzero" fill="#FFFFFF">
            <path d="M853.338,0 C947.592,0 1024,76.408 1024,170.677 L1024,1024 L256,1024 L485.557,591.33 L341.338,591.33 C152.817,591.33 0,438.513 0,250.007 L0,42.677 C-0.0039791613,31.3597354 4.48899766,20.5046348 12.490106,12.5007133 C20.4912143,4.49679183 31.3447347,-6.99538482e-07 42.662,-4.73643347e-15 L853.338,0 Z M972.8,591.33 L972.8,171.249 C972.8,112.459 930.304,63.428 874.42,53.188 C873.864,53.082 873.306,53.022 872.764,52.932 C869.694382,52.4050062 866.605364,51.9980297 863.504,51.712 C862.765,51.652 861.997,51.652 861.274,51.607 L850.221,51.577 L726.031,51.29 L638.419,577.717 C632.124,615.484 640.783,650.571 662.784,676.547 C684.77,702.494 717.974,716.8 756.254,716.8 L972.8,716.8 L972.8,591.33 Z M972.8,972.8 L972.8,768 L756.254,768 C645.481,768 569.72,678.596 587.896,569.314 L674.153,51.2 L170.24,51.2 C165.989609,115.100693 115.100693,165.989609 51.2,170.24 L51.2,250.007 C51.2,409.977 181.353,540.13 341.338,540.13 L485.557,540.13 C503.522856,540.131199 520.173624,549.548847 529.431819,564.945529 C538.690015,580.34221 539.200899,599.464949 530.778,615.334 L341.112,972.8 L972.8,972.8 Z M512,128 C527.244166,128 541.330356,136.132665 548.952439,149.3345 C556.574522,162.536334 556.574522,178.801666 548.952439,192.0035 C541.330356,205.205335 527.244166,213.338 512,213.338 C488.434562,213.338 469.331,194.234438 469.331,170.669 C469.331,147.103562 488.434562,128 512,128 L512,128 Z" id="Shape"></path>
        </g>
    </g>
</svg>