<?xml version="1.0" standalone="no"?><!DOCTYPE svg PUBLIC "-//W3C//DTD SVG 1.1//EN" "http://www.w3.org/Graphics/SVG/1.1/DTD/svg11.dtd"><svg t="1538899195973" class="icon" style="" viewBox="0 0 1260 1024" version="1.1" xmlns="http://www.w3.org/2000/svg" p-id="19605" xmlns:xlink="http://www.w3.org/1999/xlink" width="246.09375" height="200"><defs><style type="text/css"></style></defs><path d="M630.153846 25.048615L51.987692 561.860923l53.563077 57.816615 51.987693-48.285538V1024h393.846153v-236.307692c0-43.874462 34.894769-78.769231 78.769231-78.769231 43.874462 0 78.769231 34.894769 78.769231 78.769231v236.307692h393.846154V571.392l51.987692 48.285538 53.563077-57.816615L630.153846 25.048615z m0 107.441231l393.846154 365.804308V945.230769h-236.307692v-157.538461c0-86.567385-70.971077-157.538462-157.538462-157.538462s-157.538462 70.971077-157.538461 157.538462v157.538461H236.307692V498.294154l393.846154-365.804308zM472.615385 472.615385v78.76923h315.076923V472.615385H472.615385z" fill="#63dbb6" p-id="19606"></path></svg>