<?xml version="1.0" encoding="UTF-8"?>
<svg width="1158px" height="999px" viewBox="0 0 1158 999" version="1.1" xmlns="http://www.w3.org/2000/svg" xmlns:xlink="http://www.w3.org/1999/xlink">
    <!-- Generator: Sketch 47 (45396) - http://www.bohemiancoding.com/sketch -->
    <title>Untitled</title>
    <desc>Created with Sketch.</desc>
    <defs></defs>
    <g id="Page-1" stroke="none" stroke-width="1" fill="none" fill-rule="evenodd">
        <g id="doghouse-ab50c91da8cfb82b764be95f2310011b506bae8162495b28fd12b2f8c9c97d04" fill-rule="nonzero" fill="#FFFFFF">
            <path d="M579.153846,0.048615 L0.987692,536.860923 L54.550769,594.677538 L106.538462,546.392 L106.538462,999 L500.384615,999 L500.384615,762.692308 C500.384615,718.817846 535.279384,683.923077 579.153846,683.923077 C623.028308,683.923077 657.923077,718.817846 657.923077,762.692308 L657.923077,999 L1051.76923,999 L1051.76923,546.392 L1103.75692,594.677538 L1157.32,536.860923 L579.153846,0.048615 Z M579.153846,107.489846 L973,473.294154 L973,920.230769 L736.692308,920.230769 L736.692308,762.692308 C736.692308,676.124923 665.721231,605.153846 579.153846,605.153846 C492.586461,605.153846 421.615384,676.124923 421.615385,762.692308 L421.615385,920.230769 L185.307692,920.230769 L185.307692,473.294154 L579.153846,107.489846 Z M421.615385,447.615385 L421.615385,526.384615 L736.692308,526.384615 L736.692308,447.615385 L421.615385,447.615385 Z" id="Shape"></path>
        </g>
    </g>
</svg>