<?xml version="1.0" standalone="no"?><!DOCTYPE svg PUBLIC "-//W3C//DTD SVG 1.1//EN" "http://www.w3.org/Graphics/SVG/1.1/DTD/svg11.dtd"><svg t="1538899258922" class="icon" style="" viewBox="0 0 1024 1024" version="1.1" xmlns="http://www.w3.org/2000/svg" p-id="22832" xmlns:xlink="http://www.w3.org/1999/xlink" width="200" height="200"><defs><style type="text/css"></style></defs><path d="M1024 328.4l-504.896 224-299.008-134.504-61.792 47.504v177.304l79.096 118.696v157.4l-118.704-117.096L0 919.6V761.296l79.096-118.696V444.696c0-2.096-0.096-4.896-0.4-8.296-0.2-3.4-0.2-6 0-7.504s0.504-3.696 0.704-6.296c0.2-2.6 1.096-4.8 2.296-6.304 1.304-1.6 3-3.2 5.104-4.8l37.2-31.696L7.8 328.4l508.104-224 508.096 224zM791.4 634.704L514.4 766.104 237.4 634.696v-116.4L514.4 648.896l277-130.592v116.4z" p-id="22833" fill="#63dbb6"></path></svg>