<?xml version="1.0" encoding="UTF-8"?>
<svg width="1024px" height="816px" viewBox="0 0 1024 816" version="1.1" xmlns="http://www.w3.org/2000/svg" xmlns:xlink="http://www.w3.org/1999/xlink">
    <!-- Generator: Sketch 47 (45396) - http://www.bohemiancoding.com/sketch -->
    <title>Untitled</title>
    <desc>Created with Sketch.</desc>
    <defs></defs>
    <g id="Page-1" stroke="none" stroke-width="1" fill="none" fill-rule="evenodd">
        <g id="training-49bb046a703c2fd1661a32d6c07993a20a4e834f72f49d5416ef8960f4a83837" fill-rule="nonzero" fill="#FFFFFF">
            <path d="M1024,224.4 L519.104,448.4 L220.096,313.896 L158.304,361.4 L158.304,538.704 L237.4,657.4 L237.4,814.8 L118.696,697.704 L0,815.6 L0,657.296 L79.096,538.6 L79.096,340.696 C79.096,338.6 79,335.8 78.696,332.4 C78.496,329 78.496,326.4 78.696,324.896 C78.896,323.392 79.2,321.2 79.4,318.6 C79.6,316 80.496,313.8 81.696,312.296 C83,310.696 84.696,309.096 86.8,307.496 L124,275.8 L7.8,224.4 L515.904,0.4 L1024,224.4 Z M791.4,530.704 L514.4,662.104 L237.4,530.696 L237.4,414.296 L514.4,544.896 L791.4,414.304 L791.4,530.704 Z" id="Shape"></path>
        </g>
    </g>
</svg>